<?xml version="1.0" standalone="no"?>
<!DOCTYPE svg PUBLIC "-//W3C//DTD SVG 20010904//EN"
 "http://www.w3.org/TR/2001/REC-SVG-20010904/DTD/svg10.dtd">
<svg version="1.0" xmlns="http://www.w3.org/2000/svg"
 width="250.000000pt" height="250.000000pt" viewBox="0 0 250.000000 250.000000"
 preserveAspectRatio="xMidYMid meet">
<metadata>
Created by potrace 1.14, written by Peter Selinger 2001-2017
</metadata>
<g transform="translate(0.000000,250.000000) scale(0.100000,-0.100000)"
fill="#000000" stroke="none">
<path d="M933 1872 c-172 -174 -313 -318 -313 -319 0 -6 -93 -93 -100 -93 -4
0 -10 -6 -13 -14 -7 -19 -9 -366 -2 -366 11 0 233 229 227 234 -3 3 0 6 6 6
10 0 464 452 483 481 5 8 9 10 9 4 0 -5 4 -4 9 4 9 14 57 -32 609 -591 78 -80
144 -142 146 -139 2 3 4 61 4 129 1 68 4 127 7 132 3 5 1 11 -4 14 -5 3 -7 15
-4 26 3 11 3 30 -1 43 -4 19 -737 769 -748 766 -1 0 -144 -143 -315 -317z"/>
<path d="M1171 1398 c-39 -40 -168 -171 -286 -291 l-214 -217 285 -288 c158
-158 290 -286 294 -285 4 1 115 111 246 244 132 132 259 260 283 284 l44 43
-25 30 c-14 17 -54 59 -89 94 l-63 63 -68 -69 c-38 -38 -68 -73 -68 -77 0 -5
-4 -9 -8 -9 -11 0 -162 -151 -162 -162 0 -4 -4 -8 -9 -8 -5 0 -24 -16 -42 -35
-31 -32 -59 -45 -59 -27 0 4 -44 52 -99 107 l-98 99 199 200 200 201 -26 21
c-13 12 -22 25 -19 28 4 3 1 6 -5 6 -7 0 -38 27 -70 60 -32 33 -61 60 -64 60
-3 0 -37 -33 -77 -72z"/>
</g>
</svg>
